<svg xmlns="http://www.w3.org/2000/svg" width="512" height="512" fill="none"><style>g{fill:#333233}@media (prefers-color-scheme: dark){g{fill:#fff}}</style><g clip-path="url(#a)"><path d="M204.025 0h31.726c.932.668 8.888.603 10.793.756 10.998.88 21.694 2.715 32.374 5.468 77.645 19.863 138.832 79.571 160.595 156.704 5.545 19.4 8.177 39.514 7.882 59.657-.075 5.046.215 11.419-.102 16.393-1.988 31.277-11.768 63.184-26.413 90.819-5.925 11.185-13.133 22.183-20.883 32.121-1.717 2.202-4.709 6.112-6.682 7.962 1.983 2.285 4.745 4.9 6.918 7.068l11.78 11.775 37.062 37.07 41.785 41.767c6.215 6.207 14.76 15.34 21.14 21v1.383a1071 1071 0 0 1-13.932 14.024c-2.425 2.415-5.763 5.54-7.93 8.033h-1.155c-2.733-3.22-7.635-7.823-10.758-10.943l-19.895-19.88-57.94-57.937-18.787-18.787c-3.703-3.703-7.868-7.711-11.375-11.523-2.353 2.395-5.501 4.79-8.168 6.867a212 212 0 0 1-25.513 17.156 255.4 255.4 0 0 1-39.702 18.344c-1.395.513-2.783 1.078-4.163 1.628-4.657 1.86-9.719 2.84-14.607 4.04a229.3 229.3 0 0 1-114.554-1.498c-14.389-3.825-29.863-10.127-43.081-16.997A223.44 223.44 0 0 1 7.683 283.235a229 229 0 0 1-6.434-33.057C1.05 248.567.431 238.997 0 238.405v-30.632c.622-.85.437-3.568.564-4.787.333-3.197.685-6.387 1.095-9.575a221 221 0 0 1 8.91-39.282C33.26 84.886 88.093 30.929 157.692 9.357c9.549-3.059 19.292-5.213 29.128-7.052C189.077 1.882 203.464.347 204.025 0m21.351 414.703c105.572-.933 190.399-87.27 189.472-192.841-.928-105.572-87.258-190.404-192.83-189.483-105.58.922-190.42 87.262-189.493 192.842.927 105.579 87.272 190.414 192.851 189.482"/><path d="M232.766 95.384c.877-.079 1.277-.18 2.126.081.732 1.649.388 37.748.388 42.308l.002 118.809-.006 39.415c-.001 6.738-.194 14.635.089 21.308l-25.178-.063c-.725.135-.673.131-1.392-.044-.807-1.205-.503-19.78-.502-22.753l.012-39.515-.006-105.126c-.001-17.843.283-36.519-.032-54.294 8.153-.137 16.328.086 24.499-.126M251.995 137.265c1.42.076 3.05.082 4.47.04 7.105-.209 14.598.306 21.67-.238-.217 5.537-.095 11.746-.097 17.326v29.831l.002 89.918-.018 28.858c.008 4.082.308 10.315.073 14.223-8.322.26-18.343-.378-26.425.199l.023-138.624-.008-28.206c0-2.212-.145-11.852.31-13.327M317.152 175.39c1.1-.035 2.783-.319 3.671.102 1.032 1.264.627 9.627.627 11.854l-.002 20.332-.003 71.662v23.548c.005 4.697-.095 9.814.147 14.474-7.11-.32-15.67-.107-22.887-.109-1.35-.023-2.795.052-4.15.095l-.025-141.852c7.42-.18 15.175-.087 22.622-.106M189.202 199.363l3.008-.189c.353 3.072.214 8.182.213 11.44l-.015 19.76.002 56.091c.002 9.6-.296 21.515.158 30.953-5.758-.498-17.001-.166-23.153-.168-1.231-.027-2.639.05-3.884.09l-.02-81.214c.002-12.047.212-24.643-.035-36.626 7.836-.112 15.93.116 23.726-.137M124.386 236.117l24.473.361c-.043 8.31.286 79.775-.148 80.68l-.648.152c-7.075-.21-18.55-.275-25.471.092l.048-59.75c0-2.342-.12-19.409.206-20.754.517-.632.732-.583 1.54-.781"/></g><defs><clipPath id="a"><path fill="#fff" d="M0 0h512v512H0z"/></clipPath></defs></svg>