<svg width="150" height="150" viewBox="0 0 150 150" fill="none" xmlns="http://www.w3.org/2000/svg">
<style>
  .favicon-base { fill: black; }
  .favicon-accent { fill: url(#paint0_linear_1004_19); }
  @media (prefers-color-scheme: dark) {
    .favicon-base { fill: white; }
    .favicon-accent { fill: white; }
  }
</style>
<path class="favicon-base" d="M118.812 59.3946C118.812 72.5014 114.556 84.6088 107.388 94.4318L143.545 130.611L150 137.065L137.091 150L130.607 143.518L94.4497 107.367C84.6249 114.563 72.5152 118.789 59.4059 118.789C26.5899 118.789 0 92.2045 0 59.3946C0 26.5848 26.5899 0 59.4059 0C92.222 0 118.812 26.5848 118.812 59.3946ZM59.4059 100.514C82.1116 100.514 100.533 82.096 100.533 59.3946C100.533 36.6933 82.1116 18.2753 59.4059 18.2753C36.7003 18.2753 18.2788 36.6933 18.2788 59.3946C18.2788 82.096 36.7003 100.514 59.4059 100.514Z"/>
<path class="favicon-accent" d="M118.812 59.3946C118.812 72.5014 114.556 84.6088 107.388 94.4318L143.545 130.611L150 137.065L137.091 150L130.607 143.518L94.4497 107.367C84.6249 114.563 72.5152 118.789 59.4059 118.789C26.5899 118.789 0 92.2045 0 59.3946C0 26.5848 26.5899 0 59.4059 0C92.222 0 118.812 26.5848 118.812 59.3946ZM59.4059 100.514C82.1116 100.514 100.533 82.096 100.533 59.3946C100.533 36.6933 82.1116 18.2753 59.4059 18.2753C36.7003 18.2753 18.2788 36.6933 18.2788 59.3946C18.2788 82.096 36.7003 100.514 59.4059 100.514Z"/>
<defs>
<linearGradient id="paint0_linear_1004_19" x1="103.067" y1="18.7817" x2="35.4294" y2="135.934" gradientUnits="userSpaceOnUse">
<stop stop-color="#2910A8"/>
<stop offset="1" stop-color="#73679F"/>
</linearGradient>
</defs>
</svg>
