<svg width="372" height="165" viewBox="0 0 372 165" fill="none" xmlns="http://www.w3.org/2000/svg">
<mask id="mask0_1003_4" style="mask-type:alpha" maskUnits="userSpaceOnUse" x="0" y="0" width="371" height="160">
<path d="M370.928 160H4.92773V154H26.0801L26.9092 151.099L27.8691 147.739L29.3252 142.64H25.8027C25.8627 142.113 25.9746 141.463 26.1572 140.677L29.5801 127.281L32.9258 140.666H32.9268C33.1094 141.451 33.2242 142.105 33.2891 142.64H30.1582L31.3311 147.566L32.1318 150.927L32.8633 154H85.4004V142.64H82.3027C82.2682 142.499 82.2312 142.329 82.1982 142.127C82.1017 141.534 82.04 140.754 82.04 139.76V38.7998C82.04 37.8055 82.1017 37.0258 82.1982 36.4326C82.2312 36.23 82.2691 36.0607 82.3037 35.9199H86.3311C86.6023 36.4308 86.9643 37.469 87.2246 39.3125L99.6973 150.446L100.097 154H122.929L123.328 150.446L133.9 56.2314C133.847 57.2744 133.817 58.2909 133.817 59.2803V66C133.817 71.6928 135.221 76.8204 138.185 81.2012L138.223 81.2578L138.263 81.3125C140.93 84.9806 143.823 88.4298 146.94 91.6582L146.989 91.709L147.039 91.7578C150.016 94.6325 152.67 97.542 155.004 100.485L155.051 100.545L155.101 100.604C157.019 102.841 157.977 105.43 157.978 108.56V125.52C157.978 131.433 157.338 135.39 156.361 137.751L156.348 137.784L156.335 137.817C156.24 138.059 156.146 138.277 156.058 138.475C155.974 138.287 155.884 138.081 155.794 137.853C154.883 135.445 154.298 131.444 154.298 125.52V103.797L148.924 105.764L135.804 110.563L133.178 111.524V119.28C133.178 122.553 133.403 126.121 133.844 129.975L133.851 130.038L133.86 130.102C134.442 134.058 135.494 137.812 137.027 141.351C138.634 145.058 140.897 148.225 143.833 150.778C147.162 153.673 151.362 154.96 156.058 154.96C160.723 154.96 164.899 153.688 168.218 150.832L168.219 150.833C171.278 148.284 173.57 145.099 175.088 141.351C176.621 137.812 177.673 134.058 178.255 130.102L178.257 130.094L178.258 130.086C178.812 126.204 179.098 122.598 179.098 119.28V108.56C179.098 102.221 177.688 96.5575 174.673 91.7578C172.093 87.3914 169.159 83.4896 165.861 80.0703H165.862C163.892 77.9592 162.006 75.985 160.213 74.1426L163.393 72.9414L176.513 67.9814L177.553 67.5879V73.2002H188.913V69.2002C188.913 67.2538 189.059 64.6367 189.37 61.3096C189.77 58.0296 190.415 54.8582 191.303 51.793C192.174 49.0158 193.304 46.5665 194.673 44.4199V139.76C194.673 140.754 194.611 141.534 194.515 142.127C194.482 142.329 194.445 142.499 194.41 142.64H191.312V154H219.473V142.64H216.376C216.341 142.499 216.303 142.329 216.271 142.127C216.174 141.534 216.112 140.754 216.112 139.76V44.4219C217.457 46.5458 218.527 48.9698 219.302 51.7227L219.322 51.7959L219.346 51.8682C220.32 54.8887 220.955 58.0114 221.249 61.2422L221.255 61.3096L221.264 61.376C221.681 64.7112 221.873 67.3016 221.873 69.2002V73.2002H233.232V24.5596H177.553V44.9639C176.953 42.3156 176.133 39.7817 175.088 37.3691C173.495 33.6925 171.255 30.548 168.354 28.0059C165.161 24.9907 161.102 23.5997 156.538 23.5996C151.866 23.5996 147.705 24.9897 144.4 28.0068C142.615 29.6312 141.083 31.498 139.795 33.5859L139.952 32.4854L140.433 29.126L141.085 24.5596H114.604L114.113 27.9941L113.633 31.3545L112.98 35.9199H116.441C116.443 35.9481 116.447 35.977 116.448 36.0068C116.479 36.579 116.455 37.3459 116.34 38.3379L116.339 38.3447L116.338 38.3525L112.353 73.7383L108.448 38.3613L108.446 38.3379L108.375 37.6299C108.319 36.9621 108.308 36.4145 108.328 35.9756C108.329 35.9567 108.331 35.9382 108.332 35.9199H111.432L111.015 31.541L110.694 28.1807L110.35 24.5596H35.1035L34.3711 27.6338L33.5713 30.9932L32.3984 35.9199H35.625C35.5412 36.4137 35.4088 37.0122 35.21 37.7246L35.1943 37.7793L35.1807 37.835L31.8193 51.3516L28.3799 37.8145L28.3779 37.8086C28.185 37.0543 28.0615 36.4287 27.9912 35.9199H31.5654L30.1084 30.8213L29.1484 27.4609L28.3203 24.5596H4.92773V0H370.928V160ZM346.538 23.5996C341.866 23.5996 337.705 24.9897 334.4 28.0068C331.597 30.5574 329.415 33.7039 327.827 37.3691C326.401 40.6596 325.396 44.1753 324.795 47.9004V24.5596H269.115V73.2002H280.476V69.2002C280.476 67.2538 280.622 64.6367 280.933 61.3096C281.333 58.0296 281.978 54.8582 282.865 51.793C283.737 49.0158 284.867 46.5665 286.235 44.4199V139.76C286.235 140.754 286.174 141.534 286.077 142.127C286.044 142.329 286.007 142.499 285.973 142.64H282.875V154H311.035V142.64H307.938C307.904 142.499 307.866 142.329 307.833 142.127C307.736 141.534 307.675 140.754 307.675 139.76V44.4219C309.02 46.5458 310.09 48.9698 310.864 51.7227L310.885 51.7959L310.908 51.8682C311.883 54.8887 312.518 58.0114 312.812 61.2422L312.817 61.3096L312.826 61.376C313.243 64.7112 313.436 67.3016 313.436 69.2002V73.2002H324.654C325.364 76.0786 326.531 78.7563 328.185 81.2012L328.223 81.2578L328.263 81.3125C330.93 84.9806 333.823 88.4298 336.94 91.6582L336.989 91.709L337.039 91.7578C340.016 94.6325 342.67 97.542 345.004 100.485L345.051 100.545L345.101 100.604C347.019 102.841 347.977 105.43 347.978 108.56V125.52C347.978 131.433 347.338 135.39 346.361 137.751L346.348 137.784L346.335 137.817C346.24 138.059 346.146 138.277 346.058 138.475C345.974 138.287 345.884 138.081 345.794 137.853C344.883 135.445 344.298 131.444 344.298 125.52V103.797L338.924 105.764L325.804 110.563L323.178 111.524V119.28C323.178 122.553 323.403 126.121 323.844 129.975L323.851 130.038L323.86 130.102C324.442 134.058 325.494 137.812 327.027 141.351C328.634 145.058 330.897 148.225 333.833 150.778C337.162 153.673 341.362 154.96 346.058 154.96C350.724 154.96 354.899 153.688 358.218 150.832L358.219 150.833C361.278 148.284 363.57 145.099 365.088 141.351C366.621 137.812 367.673 134.058 368.255 130.102L368.257 130.094L368.258 130.086C368.812 126.204 369.098 122.598 369.098 119.28V108.56C369.098 102.221 367.688 96.5575 364.673 91.7578C362.093 87.3914 359.159 83.4896 355.861 80.0703H355.862C353.892 77.9592 352.006 75.985 350.213 74.1426L353.393 72.9414L366.513 67.9814L369.098 67.0039V59.2803C369.098 56.0654 368.811 52.5658 368.257 48.7939H368.258C367.678 44.7363 366.627 40.9216 365.088 37.3691C363.495 33.6925 361.255 30.548 358.354 28.0059C355.161 24.9907 351.102 23.5997 346.538 23.5996ZM4.92773 154H0L1.45703 148.901L2.41699 145.541L3.24512 142.64H4.92773V154ZM239.775 24.5596L239.381 28.1191L227.067 139.255C226.807 141.093 226.446 142.129 226.175 142.64H223.079L222.734 146.261L222.414 149.621L221.997 154H250.193L250.538 150.379L250.858 147.02L251.275 142.64H248.239C248.236 142.602 248.231 142.563 248.229 142.522C248.192 141.93 248.205 141.151 248.296 140.161L249.664 127.6H253.049L254.416 140.16C254.506 141.143 254.517 141.911 254.477 142.491C254.473 142.543 254.466 142.593 254.462 142.64H251.277L251.694 147.02L252.015 150.379L252.359 154H280.929L280.276 149.435L279.796 146.074L279.306 142.64H276.351C276.123 142.147 275.823 141.153 275.659 139.39L275.656 139.352L275.651 139.313L263.172 28.1143L262.772 24.5596H239.775ZM356.102 147.379L355.658 147.76C355.81 147.633 355.958 147.504 356.105 147.374C356.104 147.375 356.103 147.378 356.102 147.379ZM256.081 146.613L255.883 146.633C255.95 146.628 256.016 146.621 256.081 146.612L256.271 146.579C256.209 146.593 256.146 146.604 256.081 146.613ZM275.202 146.579C275.338 146.606 275.477 146.624 275.62 146.633C275.549 146.628 275.478 146.622 275.408 146.613L275.202 146.579ZM274.435 146.311C274.555 146.373 274.68 146.427 274.808 146.472C274.744 146.449 274.68 146.425 274.618 146.398L274.435 146.311ZM245.517 146.21C245.61 146.282 245.709 146.344 245.812 146.397C245.761 146.37 245.71 146.342 245.66 146.311L245.517 146.21ZM273.93 145.977C273.821 145.888 273.715 145.79 273.613 145.684C273.661 145.733 273.709 145.781 273.758 145.827C273.814 145.88 273.871 145.929 273.93 145.977ZM257.746 145.505C257.674 145.621 257.596 145.729 257.514 145.827V145.826C257.596 145.728 257.674 145.62 257.746 145.504V145.505ZM167.871 145.604L167.821 145.657C167.856 145.618 167.891 145.579 167.926 145.539C167.907 145.56 167.89 145.582 167.871 145.604ZM168.321 145.067C168.598 144.728 168.862 144.378 169.115 144.02C169.082 144.066 169.052 144.114 169.019 144.16C168.795 144.47 168.562 144.772 168.321 145.067ZM37.2686 144.698L37.2227 144.92C37.2456 144.821 37.2643 144.718 37.2812 144.61C37.2766 144.64 37.2737 144.669 37.2686 144.698ZM5.80176 35.9199C5.83589 35.9582 5.87878 36.0089 5.92969 36.0752C6.35763 36.6328 6.94011 37.7788 7.51562 39.8262L19.8984 89.3564L7.50293 138.787L7.49414 138.82L7.48633 138.854C7.00711 140.914 6.47312 142.022 6.09375 142.532C6.06128 142.576 6.03151 142.611 6.00684 142.64H4.92773V35.9199H5.80176ZM60.3369 35.9199C60.3715 36.0607 60.4094 36.23 60.4424 36.4326C60.5389 37.0258 60.6006 37.8055 60.6006 38.7998V139.76C60.6006 140.754 60.5389 141.534 60.4424 142.127C60.4094 142.329 60.3724 142.499 60.3379 142.64H55.4785C55.4538 142.611 55.4241 142.576 55.3916 142.532C55.0122 142.022 54.4782 140.914 53.999 138.854L53.9795 138.775L41.4287 89.3584L53.9805 39.7812L53.9795 39.7803C54.5098 37.7107 55.0683 36.5704 55.4717 36.0283C55.5039 35.9851 55.5325 35.9493 55.5566 35.9199H60.3369ZM140.698 139.76C140.785 139.96 140.874 140.158 140.965 140.354C140.874 140.158 140.784 139.96 140.697 139.76C140.611 139.56 140.526 139.359 140.442 139.157C140.409 139.076 140.377 138.994 140.344 138.913C140.459 139.197 140.577 139.479 140.698 139.76ZM330.698 139.76C330.785 139.96 330.874 140.158 330.965 140.354C330.874 140.158 330.784 139.96 330.697 139.76C330.611 139.56 330.526 139.359 330.442 139.157C330.409 139.076 330.377 138.994 330.344 138.913C330.459 139.197 330.577 139.479 330.698 139.76ZM361.657 139.195L361.418 139.76C361.503 139.563 361.586 139.366 361.668 139.168C361.664 139.177 361.661 139.186 361.657 139.195ZM139.657 137.089C139.856 137.661 140.068 138.227 140.293 138.787C140.18 138.505 140.069 138.222 139.963 137.938C139.886 137.732 139.811 137.526 139.737 137.319C139.71 137.243 139.684 137.166 139.657 137.089ZM329.657 137.089C329.856 137.661 330.068 138.227 330.293 138.787C330.18 138.505 330.069 138.222 329.963 137.938C329.886 137.732 329.811 137.526 329.737 137.319C329.71 137.243 329.684 137.166 329.657 137.089ZM139.584 136.874C139.493 136.607 139.403 136.339 139.317 136.069C139.403 136.339 139.493 136.607 139.584 136.874ZM329.584 136.874C329.493 136.607 329.403 136.339 329.317 136.069C329.403 136.339 329.493 136.607 329.584 136.874ZM138.443 132.857L138.598 133.51C138.49 133.072 138.389 132.632 138.295 132.188C138.342 132.412 138.392 132.635 138.443 132.857ZM328.443 132.857L328.598 133.51C328.49 133.072 328.389 132.632 328.295 132.188C328.342 132.412 328.392 132.635 328.443 132.857ZM137.818 129.52C137.873 129.893 137.933 130.263 137.997 130.632C137.933 130.263 137.872 129.893 137.817 129.52C137.767 129.078 137.72 128.641 137.676 128.209C137.72 128.641 137.768 129.078 137.818 129.52ZM327.818 129.52C327.873 129.893 327.933 130.263 327.997 130.632C327.933 130.263 327.872 129.893 327.817 129.52C327.767 129.078 327.72 128.641 327.676 128.209C327.72 128.641 327.768 129.078 327.818 129.52ZM150.343 128.293C150.337 128.107 150.33 127.92 150.325 127.73L150.324 127.663C150.329 127.875 150.336 128.085 150.343 128.293ZM340.343 128.293C340.337 128.107 340.33 127.92 340.325 127.73L340.324 127.663C340.329 127.875 340.336 128.085 340.343 128.293ZM137.216 121.595C137.215 121.566 137.214 121.537 137.213 121.508L137.188 120.455C137.194 120.83 137.204 121.21 137.216 121.595ZM327.216 121.595C327.215 121.566 327.214 121.537 327.213 121.508L327.188 120.455C327.194 120.83 327.204 121.21 327.216 121.595ZM251.361 112.56H251.352L251.356 112.516L251.361 112.56ZM148.708 87.71C149.075 88.1032 149.445 88.4932 149.818 88.8799H149.817C149.444 88.4933 149.075 88.1032 148.708 87.71ZM338.708 87.71C339.075 88.1032 339.445 88.4932 339.818 88.8799H339.817C339.444 88.4933 339.075 88.1032 338.708 87.71ZM138.667 72.7422C138.658 72.7093 138.648 72.6765 138.64 72.6436L138.627 72.5928C138.64 72.6427 138.654 72.6925 138.667 72.7422ZM328.667 72.7422C328.658 72.7093 328.648 72.6765 328.64 72.6436L328.627 72.5928C328.64 72.6427 328.654 72.6925 328.667 72.7422ZM156.437 40.7441L156.464 40.8242L156.495 40.9023C157.387 43.1734 157.978 47.0944 157.978 53.04V71.8682C157.827 71.7165 157.678 71.5646 157.528 71.415C155.567 69.2704 154.938 67.485 154.938 66V53.04C154.938 47.1005 155.471 43.1364 156.295 40.8115C156.324 40.7363 156.354 40.6637 156.382 40.5928C156.399 40.6423 156.419 40.6926 156.437 40.7441ZM346.437 40.7441L346.464 40.8242L346.495 40.9023C347.387 43.1734 347.978 47.0944 347.978 53.04V71.8682C347.827 71.7165 347.678 71.5646 347.528 71.415C345.567 69.2704 344.938 67.485 344.938 66V53.04C344.938 47.1005 345.471 43.1364 346.295 40.8115C346.324 40.7363 346.354 40.6637 346.382 40.5928C346.399 40.6423 346.419 40.6926 346.437 40.7441ZM31.8633 67.7598L31.8623 67.7578L39.0625 38.7998L31.8633 67.7598ZM151.022 67.2344C151.014 67.1685 151.002 67.103 150.995 67.0371L150.992 67.0049C151 67.0815 151.012 67.1578 151.022 67.2344ZM341.022 67.2344C341.014 67.1685 341.002 67.103 340.995 67.0371L340.992 67.0049C341 67.0815 341.012 67.1578 341.022 67.2344ZM137.818 59.2803V66C137.818 66.3133 137.822 66.6238 137.832 66.9316L137.817 66V59.2803C137.817 59.1578 137.82 59.0347 137.821 58.9111C137.82 59.0347 137.818 59.1578 137.818 59.2803ZM327.818 59.2803V66C327.818 66.3133 327.822 66.6238 327.832 66.9316L327.817 66V59.2803C327.817 59.1578 327.82 59.0347 327.821 58.9111C327.82 59.0347 327.818 59.1578 327.818 59.2803ZM224.716 56.9648L224.823 57.6113C224.754 57.1797 224.679 56.7496 224.599 56.3213C224.639 56.5354 224.678 56.7499 224.716 56.9648ZM316.278 56.9648L316.386 57.6113C316.317 57.1797 316.242 56.7496 316.161 56.3213C316.202 56.5354 316.241 56.7499 316.278 56.9648ZM137.94 55.6338C137.93 55.7895 137.922 55.9444 137.913 56.0986C137.919 55.9945 137.923 55.8899 137.93 55.7852L137.94 55.6338ZM327.94 55.6338C327.93 55.7895 327.922 55.9444 327.913 56.0986C327.919 55.9945 327.923 55.8899 327.93 55.7852L327.94 55.6338ZM224.339 55.041L224.473 55.6797C224.408 55.3622 224.339 55.0461 224.268 54.7305C224.291 54.8341 224.316 54.9372 224.339 55.041ZM315.901 55.041L316.035 55.6797C315.971 55.3622 315.901 55.0461 315.83 54.7305C315.853 54.8341 315.879 54.9372 315.901 55.041ZM138.006 54.7305C138.01 54.674 138.013 54.6172 138.018 54.5605C138.023 54.4903 138.03 54.4201 138.036 54.3496C138.025 54.477 138.016 54.604 138.006 54.7305ZM328.006 54.7305C328.01 54.674 328.013 54.6172 328.018 54.5605C328.023 54.4903 328.03 54.4201 328.036 54.3496C328.025 54.477 328.016 54.604 328.006 54.7305ZM138.501 35.9199C138.266 36.3937 138.041 36.8765 137.827 37.3691C136.495 40.4437 135.53 43.715 134.918 47.1699L135.806 39.2617C136.014 37.4684 136.336 36.4399 136.584 35.9199H138.501ZM219.653 42.5371C219.681 42.5821 219.708 42.6277 219.735 42.6729C219.701 42.6168 219.667 42.5606 219.633 42.5049L219.653 42.5371ZM311.216 42.5371C311.244 42.5821 311.27 42.6277 311.298 42.6729C311.264 42.6168 311.23 42.5606 311.195 42.5049L311.216 42.5371ZM120.389 38.0381C120.368 38.2845 120.343 38.5385 120.312 38.7998C120.343 38.5385 120.368 38.2845 120.389 38.0381ZM198.058 36.4258C198.091 36.4146 198.124 36.4025 198.158 36.3916C198.178 36.3854 198.197 36.3802 198.217 36.374C198.164 36.3908 198.111 36.4082 198.058 36.4258ZM289.62 36.4258C289.654 36.4146 289.687 36.4025 289.721 36.3916C289.74 36.3854 289.76 36.3802 289.779 36.374C289.726 36.3908 289.673 36.4082 289.62 36.4258ZM4.92773 35.9199H2.94336L2.21191 32.8467L1.41113 29.4863L0.238281 24.5596H4.92773V35.9199ZM166.112 31.3662H166.111H166.112ZM356.112 31.3662H356.111H356.112ZM274.057 146.074C274.014 146.043 273.971 146.011 273.93 145.977C273.971 146.011 274.014 146.043 274.057 146.074Z" fill="#D9D9D9"/>
</mask>
<g mask="url(#mask0_1003_4)">
<mask id="mask1_1003_4" style="mask-type:alpha" maskUnits="userSpaceOnUse" x="56" y="-12" width="192" height="177">
<rect x="56.928" y="-12" width="191" height="177" fill="url(#paint0_linear_1003_4)"/>
</mask>
<g mask="url(#mask1_1003_4)">
<path d="M191.115 61.3946C191.115 74.5014 186.859 86.6088 179.691 96.4318L215.848 132.611L222.303 139.065L209.394 152L202.91 145.518L166.753 109.367C156.928 116.563 144.818 120.789 131.709 120.789C98.8927 120.789 72.3029 94.2045 72.3029 61.3946C72.3029 28.5848 98.8927 2 131.709 2C164.525 2 191.115 28.5848 191.115 61.3946ZM131.709 102.514C154.414 102.514 172.836 84.096 172.836 61.3946C172.836 38.6933 154.414 20.2753 131.709 20.2753C109.003 20.2753 90.5816 38.6933 90.5816 61.3946C90.5816 84.096 109.003 102.514 131.709 102.514Z" fill="black"/>
<path d="M191.115 61.3946C191.115 74.5014 186.859 86.6088 179.691 96.4318L215.848 132.611L222.303 139.065L209.394 152L202.91 145.518L166.753 109.367C156.928 116.563 144.818 120.789 131.709 120.789C98.8927 120.789 72.3029 94.2045 72.3029 61.3946C72.3029 28.5848 98.8927 2 131.709 2C164.525 2 191.115 28.5848 191.115 61.3946ZM131.709 102.514C154.414 102.514 172.836 84.096 172.836 61.3946C172.836 38.6933 154.414 20.2753 131.709 20.2753C109.003 20.2753 90.5816 38.6933 90.5816 61.3946C90.5816 84.096 109.003 102.514 131.709 102.514Z" fill="url(#paint1_linear_1003_4)"/>
</g>
</g>
<path d="M11.008 38.8C9.72802 34.2133 7.96802 31.92 5.72802 31.92L4.92802 28.56H24.928L25.888 31.92C23.5414 31.92 22.9547 34.2133 24.128 38.8L31.488 67.76L38.688 38.8C39.968 34.2133 39.4347 31.92 37.088 31.92L37.888 28.56H55.648L54.848 31.92C52.608 31.92 50.9014 34.2133 49.728 38.8L36.928 89.36L49.728 139.76C50.7947 144.347 52.5014 146.64 54.848 146.64L55.648 150H35.648L34.848 146.64C36.9814 146.64 37.5147 144.347 36.448 139.76L29.248 110.96L21.888 139.76C20.8214 144.347 21.408 146.64 23.648 146.64L22.688 150H4.92802L5.88802 146.64C8.23469 146.64 9.94136 144.347 11.008 139.76L23.648 89.36L11.008 38.8ZM64.2255 38.8C64.2255 34.2133 63.1055 31.92 60.8655 31.92V28.56H81.0255V31.92C78.7855 31.92 77.6655 34.2133 77.6655 38.8V139.76C77.6655 144.347 78.7855 146.64 81.0255 146.64V150H60.8655V146.64C63.1055 146.64 64.2255 144.347 64.2255 139.76V38.8ZM119.938 38.8C120.471 34.2133 119.565 31.92 117.218 31.92L117.698 28.56H136.098L135.618 31.92C133.378 31.92 131.991 34.2133 131.458 38.8L118.978 150H103.298L90.818 38.8C90.178 34.2133 88.738 31.92 86.498 31.92L86.178 28.56H106.338L106.658 31.92C104.418 31.92 103.565 34.2133 104.098 38.8L111.938 109.84L119.938 38.8ZM174.723 64.24L161.603 69.2V53.04C161.603 46.96 161.016 42.4267 159.843 39.44C158.776 36.3467 157.55 34.8 156.163 34.8C154.67 34.8 153.336 36.3467 152.163 39.44C151.096 42.4267 150.563 46.96 150.563 53.04V66C150.563 68.7733 151.79 71.4933 154.243 74.16C156.803 76.72 159.576 79.6 162.563 82.8C165.656 86 168.43 89.68 170.883 93.84C173.443 97.8933 174.723 102.8 174.723 108.56V119.28C174.723 122.373 174.456 125.787 173.923 129.52C173.39 133.147 172.43 136.56 171.043 139.76C169.763 142.96 167.843 145.627 165.283 147.76C162.83 149.893 159.63 150.96 155.683 150.96C151.736 150.96 148.536 149.893 146.083 147.76C143.63 145.627 141.71 142.96 140.323 139.76C138.936 136.56 137.976 133.147 137.443 129.52C137.016 125.787 136.803 122.373 136.803 119.28V114.32L149.923 109.52V125.52C149.923 131.6 150.51 136.187 151.683 139.28C152.856 142.267 154.19 143.76 155.683 143.76C157.176 143.76 158.51 142.267 159.683 139.28C160.963 136.187 161.603 131.6 161.603 125.52V108.56C161.603 104.507 160.323 100.987 157.763 98C155.31 94.9067 152.536 91.8667 149.443 88.88C146.456 85.7867 143.683 82.48 141.123 78.96C138.67 75.3333 137.443 71.0133 137.443 66V59.28C137.443 56.2933 137.71 52.9867 138.243 49.36C138.776 45.6267 139.736 42.16 141.123 38.96C142.51 35.76 144.376 33.0933 146.723 30.96C149.176 28.72 152.323 27.6 156.163 27.6C159.896 27.6 162.936 28.72 165.283 30.96C167.736 33.0933 169.656 35.76 171.043 38.96C172.43 42.16 173.39 45.6267 173.923 49.36C174.456 52.9867 174.723 56.2933 174.723 59.28V64.24ZM228.858 28.56V69.2H225.498C225.498 67.0667 225.285 64.2933 224.858 60.88C224.538 57.36 223.845 53.9467 222.778 50.64C221.818 47.2267 220.431 44.1867 218.618 41.52C216.805 38.7467 214.511 36.9867 211.738 36.24V139.76C211.738 144.347 212.858 146.64 215.098 146.64V150H194.938V146.64C197.178 146.64 198.298 144.347 198.298 139.76V36.24C195.525 36.9867 193.231 38.7467 191.418 41.52C189.605 44.1867 188.165 47.2267 187.098 50.64C186.138 53.9467 185.445 57.36 185.018 60.88C184.698 64.2933 184.538 67.0667 184.538 69.2H181.178V28.56H228.858ZM242.982 28.56H258.822L271.302 139.76C271.728 144.347 273.115 146.64 275.462 146.64L275.942 150H255.622L255.302 146.64C257.542 146.64 258.448 144.347 258.022 139.76L256.262 123.6H245.702L243.942 139.76C243.515 144.347 244.368 146.64 246.502 146.64L246.182 150H226.022L226.342 146.64C228.582 146.64 230.022 144.347 230.662 139.76L242.982 28.56ZM255.462 116.56L250.982 76.72L246.502 116.56H255.462ZM320.421 28.56V69.2H317.061C317.061 67.0667 316.847 64.2933 316.421 60.88C316.101 57.36 315.407 53.9467 314.341 50.64C313.381 47.2267 311.994 44.1867 310.181 41.52C308.367 38.7467 306.074 36.9867 303.301 36.24V139.76C303.301 144.347 304.421 146.64 306.661 146.64V150H286.501V146.64C288.741 146.64 289.861 144.347 289.861 139.76V36.24C287.087 36.9867 284.794 38.7467 282.981 41.52C281.167 44.1867 279.727 47.2267 278.661 50.64C277.701 53.9467 277.007 57.36 276.581 60.88C276.261 64.2933 276.101 67.0667 276.101 69.2H272.741V28.56H320.421ZM364.723 64.24L351.603 69.2V53.04C351.603 46.96 351.016 42.4267 349.843 39.44C348.776 36.3467 347.55 34.8 346.163 34.8C344.67 34.8 343.336 36.3467 342.163 39.44C341.096 42.4267 340.563 46.96 340.563 53.04V66C340.563 68.7733 341.79 71.4933 344.243 74.16C346.803 76.72 349.576 79.6 352.563 82.8C355.656 86 358.43 89.68 360.883 93.84C363.443 97.8933 364.723 102.8 364.723 108.56V119.28C364.723 122.373 364.456 125.787 363.923 129.52C363.39 133.147 362.43 136.56 361.043 139.76C359.763 142.96 357.843 145.627 355.283 147.76C352.83 149.893 349.63 150.96 345.683 150.96C341.736 150.96 338.536 149.893 336.083 147.76C333.63 145.627 331.71 142.96 330.323 139.76C328.936 136.56 327.976 133.147 327.443 129.52C327.016 125.787 326.803 122.373 326.803 119.28V114.32L339.923 109.52V125.52C339.923 131.6 340.51 136.187 341.683 139.28C342.856 142.267 344.19 143.76 345.683 143.76C347.176 143.76 348.51 142.267 349.683 139.28C350.963 136.187 351.603 131.6 351.603 125.52V108.56C351.603 104.507 350.323 100.987 347.763 98C345.31 94.9067 342.536 91.8667 339.443 88.88C336.456 85.7867 333.683 82.48 331.123 78.96C328.67 75.3333 327.443 71.0133 327.443 66V59.28C327.443 56.2933 327.71 52.9867 328.243 49.36C328.776 45.6267 329.736 42.16 331.123 38.96C332.51 35.76 334.376 33.0933 336.723 30.96C339.176 28.72 342.323 27.6 346.163 27.6C349.896 27.6 352.936 28.72 355.283 30.96C357.736 33.0933 359.656 35.76 361.043 38.96C362.43 42.16 363.39 45.6267 363.923 49.36C364.456 52.9867 364.723 56.2933 364.723 59.28V64.24Z" fill="currentColor"/>
<rect x="5.30288" y="160" width="366" height="5" fill="currentColor"/>
<defs>
<linearGradient id="paint0_linear_1003_4" x1="152.428" y1="-12" x2="152.428" y2="165" gradientUnits="userSpaceOnUse">
<stop offset="0.759615" stop-color="white"/>
<stop offset="0.923077" stop-opacity="0"/>
</linearGradient>
<linearGradient id="paint1_linear_1003_4" x1="175.37" y1="20.7817" x2="107.732" y2="137.934" gradientUnits="userSpaceOnUse">
<stop stop-color="#2910A8"/>
<stop offset="1" stop-color="#73679F"/>
</linearGradient>
</defs>
</svg>
